<?xml version="1.0" encoding="UTF-8" standalone="no"?>
<!-- Created with Inkscape (http://www.inkscape.org/) -->

<svg
   xmlns:dc="http://purl.org/dc/elements/1.1/"
   xmlns:cc="http://creativecommons.org/ns#"
   xmlns:rdf="http://www.w3.org/1999/02/22-rdf-syntax-ns#"
   xmlns:svg="http://www.w3.org/2000/svg"
   xmlns="http://www.w3.org/2000/svg"
   xmlns:xlink="http://www.w3.org/1999/xlink"
   xmlns:sodipodi="http://sodipodi.sourceforge.net/DTD/sodipodi-0.dtd"
   xmlns:inkscape="http://www.inkscape.org/namespaces/inkscape"
   width="128"
   height="128"
   id="svg4092"
   version="1.1"
   inkscape:version="0.48.1 r9760"
   sodipodi:docname="r4.svg"
   inkscape:export-filename="/Users/xylosper/cmplayer-vlc/icons/cmplayer512.png"
   inkscape:export-xdpi="360"
   inkscape:export-ydpi="360">
  <defs
     id="defs4094">
    <linearGradient
       id="linearGradient4278">
      <stop
         style="stop-color:#ffffff;stop-opacity:0.94117647;"
         offset="0"
         id="stop4280" />
      <stop
         style="stop-color:#ffffff;stop-opacity:0;"
         offset="1"
         id="stop4282" />
    </linearGradient>
    <linearGradient
       id="linearGradient5285">
      <stop
         style="stop-color:#000000;stop-opacity:1;"
         offset="0"
         id="stop5287" />
      <stop
         id="stop3951"
         offset="0.03616503"
         style="stop-color:#000000;stop-opacity:1;" />
      <stop
         id="stop3949"
         offset="0.1049668"
         style="stop-color:#ffffff;stop-opacity:1;" />
      <stop
         id="stop5299"
         offset="0.16140011"
         style="stop-color:#000000;stop-opacity:1;" />
      <stop
         style="stop-color:#000000;stop-opacity:1;"
         offset="0.5"
         id="stop3953" />
      <stop
         id="stop5297"
         offset="0.634794"
         style="stop-color:#000000;stop-opacity:1;" />
      <stop
         id="stop5295"
         offset="0.80265063"
         style="stop-color:#ffffff;stop-opacity:1;" />
      <stop
         style="stop-color:#000000;stop-opacity:1;"
         offset="0.90466774"
         id="stop3955" />
      <stop
         style="stop-color:#000000;stop-opacity:1;"
         offset="1"
         id="stop5289" />
    </linearGradient>
    <linearGradient
       id="linearGradient5273">
      <stop
         id="stop5275"
         offset="0"
         style="stop-color:#000000;stop-opacity:1;" />
      <stop
         style="stop-color:#000000;stop-opacity:1;"
         offset="0.13025211"
         id="stop3959" />
      <stop
         style="stop-color:#ffffff;stop-opacity:1;"
         offset="0.5"
         id="stop5279" />
      <stop
         id="stop3957"
         offset="0.86974788"
         style="stop-color:#000000;stop-opacity:1;" />
      <stop
         id="stop5277"
         offset="1"
         style="stop-color:#000000;stop-opacity:1;" />
    </linearGradient>
    <linearGradient
       id="linearGradient5246">
      <stop
         id="stop5248"
         offset="0"
         style="stop-color:#ffffff;stop-opacity:0.51428574;" />
      <stop
         id="stop5250"
         offset="1"
         style="stop-color:#ffffff;stop-opacity:0;" />
    </linearGradient>
    <linearGradient
       id="linearGradient4273">
      <stop
         style="stop-color:#d1ecff;stop-opacity:1;"
         offset="0"
         id="stop4275" />
      <stop
         id="stop3948"
         offset="0.94999999"
         style="stop-color:#b9d2ff;stop-opacity:1;" />
      <stop
         style="stop-color:#bebebe;stop-opacity:1;"
         offset="1"
         id="stop4277" />
    </linearGradient>
    <radialGradient
       inkscape:collect="always"
       xlink:href="#linearGradient4273"
       id="radialGradient4265"
       cx="64"
       cy="64"
       fx="64"
       fy="64"
       r="48"
       gradientUnits="userSpaceOnUse" />
    <radialGradient
       inkscape:collect="always"
       xlink:href="#linearGradient4273"
       id="radialGradient4446"
       gradientUnits="userSpaceOnUse"
       cx="64"
       cy="64"
       fx="64"
       fy="64"
       r="48" />
    <linearGradient
       inkscape:collect="always"
       xlink:href="#linearGradient5246"
       id="linearGradient5244"
       x1="18"
       y1="64"
       x2="110"
       y2="64"
       gradientUnits="userSpaceOnUse" />
    <linearGradient
       inkscape:collect="always"
       xlink:href="#linearGradient5273"
       id="linearGradient5271"
       x1="24.000002"
       y1="988.36218"
       x2="104"
       y2="988.36218"
       gradientUnits="userSpaceOnUse" />
    <linearGradient
       inkscape:collect="always"
       xlink:href="#linearGradient5285"
       id="linearGradient5305"
       x1="25.025642"
       y1="989.36218"
       x2="105.02564"
       y2="989.36218"
       gradientUnits="userSpaceOnUse" />
    <linearGradient
       inkscape:collect="always"
       xlink:href="#linearGradient5273"
       id="linearGradient5535"
       gradientUnits="userSpaceOnUse"
       x1="24.000002"
       y1="988.36218"
       x2="104"
       y2="988.36218" />
    <linearGradient
       inkscape:collect="always"
       xlink:href="#linearGradient5285"
       id="linearGradient5541"
       gradientUnits="userSpaceOnUse"
       x1="25.025642"
       y1="989.36218"
       x2="105.02564"
       y2="989.36218" />
    <filter
       inkscape:collect="always"
       id="filter3936">
      <feGaussianBlur
         inkscape:collect="always"
         stdDeviation="3.7155525"
         id="feGaussianBlur3938" />
    </filter>
    <filter
       inkscape:collect="always"
       id="filter4232">
      <feGaussianBlur
         inkscape:collect="always"
         stdDeviation="1.3200002"
         id="feGaussianBlur4234" />
    </filter>
    <radialGradient
       inkscape:collect="always"
       xlink:href="#linearGradient4273"
       id="radialGradient4274"
       gradientUnits="userSpaceOnUse"
       cx="64"
       cy="64"
       fx="64"
       fy="64"
       r="48" />
    <radialGradient
       inkscape:collect="always"
       xlink:href="#linearGradient4278"
       id="radialGradient4284"
       cx="37.436081"
       cy="60.21077"
       fx="37.436081"
       fy="60.21077"
       r="48"
       gradientUnits="userSpaceOnUse" />
    <radialGradient
       inkscape:collect="always"
       xlink:href="#linearGradient4273"
       id="radialGradient4333"
       gradientUnits="userSpaceOnUse"
       cx="64"
       cy="64"
       fx="64"
       fy="64"
       r="48" />
    <radialGradient
       inkscape:collect="always"
       xlink:href="#linearGradient4273"
       id="radialGradient4352"
       gradientUnits="userSpaceOnUse"
       cx="64"
       cy="64"
       fx="64"
       fy="64"
       r="48" />
  </defs>
  <sodipodi:namedview
     id="base"
     pagecolor="#ffffff"
     bordercolor="#666666"
     borderopacity="1.0"
     inkscape:pageopacity="0.0"
     inkscape:pageshadow="2"
     inkscape:zoom="3.3951472"
     inkscape:cx="21.199936"
     inkscape:cy="55.143383"
     inkscape:document-units="px"
     inkscape:current-layer="layer1"
     showgrid="true"
     showguides="true"
     inkscape:guide-bbox="true"
     inkscape:window-width="1280"
     inkscape:window-height="905"
     inkscape:window-x="0"
     inkscape:window-y="22"
     inkscape:window-maximized="1"
     inkscape:snap-global="true">
    <inkscape:grid
       type="xygrid"
       id="grid4100"
       empspacing="8"
       visible="true"
       enabled="true"
       snapvisiblegridlinesonly="true"
       spacingx="2px"
       spacingy="2px"
       dotted="false" />
    <sodipodi:guide
       orientation="0,1"
       position="64,64"
       id="guide4102" />
    <sodipodi:guide
       orientation="1,0"
       position="64,64"
       id="guide4104" />
    <sodipodi:guide
       orientation="0,1"
       position="96,124"
       id="guide3471" />
    <sodipodi:guide
       orientation="0,1"
       position="116,4"
       id="guide3473" />
    <sodipodi:guide
       orientation="1,0"
       position="4,44"
       id="guide3475" />
    <sodipodi:guide
       orientation="1,0"
       position="124,28"
       id="guide3477" />
    <sodipodi:guide
       orientation="0,1"
       position="92,112"
       id="guide3481" />
    <sodipodi:guide
       orientation="0,1"
       position="100,16"
       id="guide3483" />
    <sodipodi:guide
       orientation="1,0"
       position="16,76"
       id="guide3485" />
    <sodipodi:guide
       orientation="1,0"
       position="112,64"
       id="guide3487" />
    <sodipodi:guide
       orientation="1,0"
       position="116,70"
       id="guide4291" />
    <sodipodi:guide
       orientation="0,1"
       position="10,82"
       id="guide4433" />
    <sodipodi:guide
       orientation="0,1"
       position="90,48"
       id="guide4435" />
    <sodipodi:guide
       orientation="1,0"
       position="10,112"
       id="guide4437" />
    <sodipodi:guide
       orientation="0,1"
       position="246,-16"
       id="guide5071" />
    <sodipodi:guide
       orientation="1,0"
       position="160,-22"
       id="guide5073" />
    <sodipodi:guide
       orientation="0,1"
       position="252,-94"
       id="guide5077" />
    <sodipodi:guide
       orientation="1,0"
       position="224,-56"
       id="guide5079" />
    <sodipodi:guide
       orientation="1,0"
       position="166,-60"
       id="guide5085" />
    <sodipodi:guide
       orientation="0,1"
       position="174,-34"
       id="guide5087" />
    <sodipodi:guide
       orientation="1,0"
       position="186,-30"
       id="guide5091" />
    <sodipodi:guide
       orientation="0,1"
       position="200,-134"
       id="guide5095" />
    <sodipodi:guide
       orientation="0,1"
       position="166,-122"
       id="guide5097" />
    <sodipodi:guide
       orientation="0,1"
       position="200,-116"
       id="guide5099" />
    <sodipodi:guide
       orientation="0,1"
       position="258,-8"
       id="guide5107" />
    <sodipodi:guide
       orientation="0,1"
       position="200,-70"
       id="guide5135" />
    <sodipodi:guide
       orientation="1,0"
       position="276,-20"
       id="guide5139" />
    <sodipodi:guide
       orientation="1,0"
       position="282,-46"
       id="guide5141" />
    <sodipodi:guide
       orientation="0,1"
       position="192,-20"
       id="guide5156" />
    <sodipodi:guide
       orientation="0,1"
       position="218,-58"
       id="guide5158" />
    <sodipodi:guide
       orientation="1,0"
       position="238,-40"
       id="guide5173" />
    <sodipodi:guide
       orientation="1,0"
       position="200,-54"
       id="guide5175" />
    <sodipodi:guide
       orientation="1,0"
       position="198,-60"
       id="guide5177" />
    <sodipodi:guide
       orientation="0,1"
       position="116,66"
       id="guide3950" />
  </sodipodi:namedview>
  <metadata
     id="metadata4097">
    <rdf:RDF>
      <cc:Work
         rdf:about="">
        <dc:format>image/svg+xml</dc:format>
        <dc:type
           rdf:resource="http://purl.org/dc/dcmitype/StillImage" />
        <cc:license
           rdf:resource="" />
        <dc:title></dc:title>
      </cc:Work>
    </rdf:RDF>
  </metadata>
  <g
     inkscape:label="Layer 1"
     inkscape:groupmode="layer"
     id="layer1"
     transform="translate(0,-924.36218)">
    <g
       id="g4286">
      <g
         transform="translate(5.64e-6,6.8000004e-6)"
         style="fill:#323232;fill-opacity:1"
         id="g3970">
        <g
           id="g3871">
          <path
             style="fill:#000000;fill-opacity:1;stroke:none"
             d="M 31.940768,963.83927 20.114875,953.06208 36.805076,946.62474 z"
             id="path4431"
             inkscape:connector-curvature="0" />
          <path
             inkscape:connector-curvature="0"
             id="path4287"
             d="m 96.05922,1012.8851 11.82587,10.7772 -16.69017,6.4372 z"
             style="fill:#000000;fill-opacity:1;stroke:none" />
          <path
             transform="matrix(0.50807108,0.73420547,-0.82231009,0.56903958,84.111291,904.95449)"
             d="M 120,64 C 120,94.927946 94.927946,120 64,120 33.072054,120 8,94.927946 8,64 8,33.072054 33.072054,8 64,8 c 30.927946,0 56,25.072054 56,56 z"
             sodipodi:ry="56"
             sodipodi:rx="56"
             sodipodi:cy="64"
             sodipodi:cx="64"
             id="path4106"
             style="fill:#000000;fill-opacity:1;stroke:none"
             sodipodi:type="arc" />
        </g>
      </g>
      <g
         transform="translate(5.64e-6,6.8000004e-6)"
         id="g3975"
         style="fill:#000000;fill-opacity:1;filter:url(#filter3936)">
        <path
           style="fill:#000000;fill-opacity:1;stroke:none"
           d="M 31.940768,963.83927 20.114875,953.06208 36.805076,946.62474 z"
           id="path3977"
           inkscape:connector-curvature="0" />
        <path
           inkscape:connector-curvature="0"
           id="path3979"
           d="m 96.05922,1012.8851 11.82587,10.7772 -16.69017,6.4372 z"
           style="fill:#000000;fill-opacity:1;stroke:none" />
        <path
           transform="matrix(0.50807108,0.73420547,-0.82231009,0.56903958,84.111291,904.95449)"
           d="M 120,64 C 120,94.927946 94.927946,120 64,120 33.072054,120 8,94.927946 8,64 8,33.072054 33.072054,8 64,8 c 30.927946,0 56,25.072054 56,56 z"
           sodipodi:ry="56"
           sodipodi:rx="56"
           sodipodi:cy="64"
           sodipodi:cx="64"
           id="path3981"
           style="fill:#000000;fill-opacity:1;stroke:none"
           sodipodi:type="arc" />
      </g>
    </g>
    <path
       transform="matrix(0.5690396,0.82231012,-0.82231012,0.5690396,80.209313,899.3158)"
       d="M 112,64 C 112,90.509668 90.509668,112 64,112 37.490332,112 16,90.509668 16,64 16,37.490332 37.490332,16 64,16 c 26.509668,0 48,21.490332 48,48 z"
       sodipodi:ry="48"
       sodipodi:rx="48"
       sodipodi:cy="64"
       sodipodi:cx="64"
       id="path3942"
       style="fill:url(#radialGradient4352);fill-opacity:1;fill-rule:evenodd;stroke:none"
       sodipodi:type="arc" />
    <g
       id="g4078"
       style="fill:#ffffff;fill-opacity:1;filter:url(#filter4232)"
       transform="translate(0,-9.9999997e-6)">
      <path
         style="fill:#ffffff;fill-opacity:1;stroke:none"
         d="m 64,988.36218 c 0,0 20,-24 30,-24 10,0 12,22 12,22 0,0 -6.509269,-10.03147 -14,-10 -7.490731,0.0315 -28,12 -28,12 z"
         id="path4080"
         inkscape:connector-curvature="0"
         sodipodi:nodetypes="czczc" />
      <path
         sodipodi:nodetypes="czczc"
         inkscape:connector-curvature="0"
         id="path4082"
         d="m 64,988.36218 c 0,0 20,24.00002 30,24.00002 10,0 12,-22.00002 12,-22.00002 0,0 -6.509269,10.03142 -14,10.00002 -7.490731,-0.032 -28,-12.00002 -28,-12.00002 z"
         style="fill:#ffffff;fill-opacity:1;stroke:none" />
      <path
         style="fill:#ffffff;fill-opacity:1;stroke:none"
         d="m 64,988.36218 c 0,0 -20,-24 -30,-24 -10,0 -12,22 -12,22 0,0 6.509269,-10.03147 14,-10 7.490731,0.0315 28,12 28,12 z"
         id="path4084"
         inkscape:connector-curvature="0"
         sodipodi:nodetypes="czczc" />
      <path
         sodipodi:nodetypes="czczc"
         inkscape:connector-curvature="0"
         id="path4086"
         d="m 64,988.36218 c 0,0 -20,24.00002 -30,24.00002 -10,0 -12,-22.00002 -12,-22.00002 0,0 6.509269,10.03142 14,10.00002 7.490731,-0.032 28,-12.00002 28,-12.00002 z"
         style="fill:#ffffff;fill-opacity:1;stroke:none" />
    </g>
    <g
       id="g3904">
      <path
         transform="translate(0,-9.9999997e-6)"
         sodipodi:nodetypes="czczc"
         inkscape:connector-curvature="0"
         id="path4238"
         d="m 64,988.36218 c 0,0 20,-24 30,-24 10,0 12,22 12,22 0,0 -6.509269,-10.03147 -14,-10 -7.490731,0.0315 -28,12 -28,12 z"
         style="fill:#ffffff;fill-opacity:1;stroke:none;filter:url(#filter4232)" />
      <path
         transform="translate(0,-9.9999997e-6)"
         style="fill:#ffffff;fill-opacity:1;stroke:none;filter:url(#filter4232)"
         d="m 64,988.36218 c 0,0 20,24.00002 30,24.00002 10,0 12,-22.00002 12,-22.00002 0,0 -6.509269,10.03142 -14,10.00002 -7.490731,-0.032 -28,-12.00002 -28,-12.00002 z"
         id="path4240"
         inkscape:connector-curvature="0"
         sodipodi:nodetypes="czczc" />
      <path
         transform="translate(0,-9.9999997e-6)"
         sodipodi:nodetypes="czczc"
         inkscape:connector-curvature="0"
         id="path4242"
         d="m 64,988.36218 c 0,0 -20,-24 -30,-24 -10,0 -12,22 -12,22 0,0 6.509269,-10.03147 14,-10 7.490731,0.0315 28,12 28,12 z"
         style="fill:#ffffff;fill-opacity:1;stroke:none;filter:url(#filter4232)" />
      <path
         transform="translate(0,-9.9999997e-6)"
         style="fill:#ffffff;fill-opacity:1;stroke:none;filter:url(#filter4232)"
         d="m 64,988.36218 c 0,0 -20,24.00002 -30,24.00002 -10,0 -12,-22.00002 -12,-22.00002 0,0 6.509269,10.03142 14,10.00002 7.490731,-0.032 28,-12.00002 28,-12.00002 z"
         id="path4244"
         inkscape:connector-curvature="0"
         sodipodi:nodetypes="czczc" />
    </g>
    <g
       id="g3910">
      <path
         style="fill:#ffffff;fill-opacity:1;stroke:none;filter:url(#filter4232)"
         d="m 64,988.36218 c 0,0 20,-24 30,-24 10,0 12,22 12,22 0,0 -6.509269,-10.03147 -14,-10 -7.490731,0.0315 -28,12 -28,12 z"
         id="path3912"
         inkscape:connector-curvature="0"
         sodipodi:nodetypes="czczc"
         transform="translate(0,-9.9999997e-6)" />
      <path
         sodipodi:nodetypes="czczc"
         inkscape:connector-curvature="0"
         id="path3914"
         d="m 64,988.36218 c 0,0 20,24.00002 30,24.00002 10,0 12,-22.00002 12,-22.00002 0,0 -6.509269,10.03142 -14,10.00002 -7.490731,-0.032 -28,-12.00002 -28,-12.00002 z"
         style="fill:#ffffff;fill-opacity:1;stroke:none;filter:url(#filter4232)"
         transform="translate(0,-9.9999997e-6)" />
      <path
         style="fill:#ffffff;fill-opacity:1;stroke:none;filter:url(#filter4232)"
         d="m 64,988.36218 c 0,0 -20,-24 -30,-24 -10,0 -12,22 -12,22 0,0 6.509269,-10.03147 14,-10 7.490731,0.0315 28,12 28,12 z"
         id="path3916"
         inkscape:connector-curvature="0"
         sodipodi:nodetypes="czczc"
         transform="translate(0,-9.9999997e-6)" />
      <path
         sodipodi:nodetypes="czczc"
         inkscape:connector-curvature="0"
         id="path3918"
         d="m 64,988.36218 c 0,0 -20,24.00002 -30,24.00002 -10,0 -12,-22.00002 -12,-22.00002 0,0 6.509269,10.03142 14,10.00002 7.490731,-0.032 28,-12.00002 28,-12.00002 z"
         style="fill:#ffffff;fill-opacity:1;stroke:none;filter:url(#filter4232)"
         transform="translate(0,-9.9999997e-6)" />
    </g>
    <g
       id="g3920">
      <path
         transform="translate(0,-9.9999997e-6)"
         sodipodi:nodetypes="czczc"
         inkscape:connector-curvature="0"
         id="path3922"
         d="m 64,988.36218 c 0,0 20,-24 30,-24 10,0 12,22 12,22 0,0 -6.509269,-10.03147 -14,-10 -7.490731,0.0315 -28,12 -28,12 z"
         style="fill:#ffffff;fill-opacity:1;stroke:none;filter:url(#filter4232)" />
      <path
         transform="translate(0,-9.9999997e-6)"
         style="fill:#ffffff;fill-opacity:1;stroke:none;filter:url(#filter4232)"
         d="m 64,988.36218 c 0,0 20,24.00002 30,24.00002 10,0 12,-22.00002 12,-22.00002 0,0 -6.509269,10.03142 -14,10.00002 -7.490731,-0.032 -28,-12.00002 -28,-12.00002 z"
         id="path3924"
         inkscape:connector-curvature="0"
         sodipodi:nodetypes="czczc" />
      <path
         transform="translate(0,-9.9999997e-6)"
         sodipodi:nodetypes="czczc"
         inkscape:connector-curvature="0"
         id="path3926"
         d="m 64,988.36218 c 0,0 -20,-24 -30,-24 -10,0 -12,22 -12,22 0,0 6.509269,-10.03147 14,-10 7.490731,0.0315 28,12 28,12 z"
         style="fill:#ffffff;fill-opacity:1;stroke:none;filter:url(#filter4232)" />
      <path
         transform="translate(0,-9.9999997e-6)"
         style="fill:#ffffff;fill-opacity:1;stroke:none;filter:url(#filter4232)"
         d="m 64,988.36218 c 0,0 -20,24.00002 -30,24.00002 -10,0 -12,-22.00002 -12,-22.00002 0,0 6.509269,10.03142 14,10.00002 7.490731,-0.032 28,-12.00002 28,-12.00002 z"
         id="path3928"
         inkscape:connector-curvature="0"
         sodipodi:nodetypes="czczc" />
    </g>
    <g
       id="g3966"
       transform="translate(0,-9.9999997e-6)">
      <path
         sodipodi:nodetypes="czczc"
         inkscape:connector-curvature="0"
         id="path3940"
         d="m 64,988.36218 c 0,0 20,-24 30,-24 10,0 12,22 12,22 0,0 -6.509269,-10.03147 -14,-10 -7.490731,0.0315 -28,12 -28,12 z"
         style="fill:#000000;fill-opacity:1;stroke:none" />
      <path
         style="fill:#000000;fill-opacity:1;stroke:none"
         d="m 64,988.36218 c 0,0 20,24.00002 30,24.00002 10,0 12,-22.00002 12,-22.00002 0,0 -6.509269,10.03142 -14,10.00002 -7.490731,-0.032 -28,-12.00002 -28,-12.00002 z"
         id="path3960"
         inkscape:connector-curvature="0"
         sodipodi:nodetypes="czczc" />
      <path
         sodipodi:nodetypes="czczc"
         inkscape:connector-curvature="0"
         id="path3962"
         d="m 64,988.36218 c 0,0 -20,-24 -30,-24 -10,0 -12,22 -12,22 0,0 6.509269,-10.03147 14,-10 7.490731,0.0315 28,12 28,12 z"
         style="fill:#000000;fill-opacity:1;stroke:none" />
      <path
         style="fill:#000000;fill-opacity:1;stroke:none"
         d="m 64,988.36218 c 0,0 -20,24.00002 -30,24.00002 -10,0 -12,-22.00002 -12,-22.00002 0,0 6.509269,10.03142 14,10.00002 7.490731,-0.032 28,-12.00002 28,-12.00002 z"
         id="path3964"
         inkscape:connector-curvature="0"
         sodipodi:nodetypes="czczc" />
    </g>
    <path
       sodipodi:type="arc"
       style="fill:url(#radialGradient4284);fill-opacity:1;fill-rule:evenodd;stroke:none"
       id="path4276"
       sodipodi:cx="64"
       sodipodi:cy="64"
       sodipodi:rx="48"
       sodipodi:ry="48"
       d="m 112,64 a 48,48 0 1 1 -96,0 48,48 0 1 1 96,0 z"
       transform="matrix(0.5690396,0.82231012,-0.82231012,0.5690396,80.209313,899.3158)" />
  </g>
</svg>
