<?xml version="1.0" encoding="UTF-8" standalone="no"?>
<!-- Created with Inkscape (http://www.inkscape.org/) -->

<svg
   xmlns:dc="http://purl.org/dc/elements/1.1/"
   xmlns:cc="http://creativecommons.org/ns#"
   xmlns:rdf="http://www.w3.org/1999/02/22-rdf-syntax-ns#"
   xmlns:svg="http://www.w3.org/2000/svg"
   xmlns="http://www.w3.org/2000/svg"
   xmlns:xlink="http://www.w3.org/1999/xlink"
   xmlns:sodipodi="http://sodipodi.sourceforge.net/DTD/sodipodi-0.dtd"
   xmlns:inkscape="http://www.inkscape.org/namespaces/inkscape"
   width="128"
   height="128"
   id="svg4092"
   version="1.1"
   inkscape:version="0.48.1 r9760"
   sodipodi:docname="cmplayer.svg"
   inkscape:export-filename="/Users/xylosper/cmplayer-vlc/src/cmplayer/img/cmplayer-icon.png"
   inkscape:export-xdpi="90"
   inkscape:export-ydpi="90">
  <defs
     id="defs4094">
    <linearGradient
       id="linearGradient5285">
      <stop
         style="stop-color:#000000;stop-opacity:1;"
         offset="0"
         id="stop5287" />
      <stop
         id="stop5299"
         offset="0.09663866"
         style="stop-color:#f0f0f0;stop-opacity:1;" />
      <stop
         id="stop5297"
         offset="0.5"
         style="stop-color:#000000;stop-opacity:1;" />
      <stop
         id="stop5295"
         offset="0.74789917"
         style="stop-color:#f0f0f0;stop-opacity:1;" />
      <stop
         style="stop-color:#000000;stop-opacity:1;"
         offset="1"
         id="stop5289" />
    </linearGradient>
    <linearGradient
       id="linearGradient5273">
      <stop
         id="stop5275"
         offset="0"
         style="stop-color:#000000;stop-opacity:1;" />
      <stop
         style="stop-color:#c8c8c8;stop-opacity:1;"
         offset="0.5"
         id="stop5279" />
      <stop
         id="stop5277"
         offset="1"
         style="stop-color:#000000;stop-opacity:1;" />
    </linearGradient>
    <linearGradient
       id="linearGradient5246">
      <stop
         id="stop5248"
         offset="0"
         style="stop-color:#ffffff;stop-opacity:0.6857143;" />
      <stop
         id="stop5250"
         offset="1"
         style="stop-color:#ffffff;stop-opacity:0;" />
    </linearGradient>
    <linearGradient
       id="linearGradient4273">
      <stop
         style="stop-color:#ffffff;stop-opacity:1;"
         offset="0"
         id="stop4275" />
      <stop
         id="stop4279"
         offset="0.68907565"
         style="stop-color:#ffffff;stop-opacity:1;" />
      <stop
         style="stop-color:#c7c7c7;stop-opacity:1;"
         offset="1"
         id="stop4277" />
    </linearGradient>
    <radialGradient
       inkscape:collect="always"
       xlink:href="#linearGradient4273"
       id="radialGradient4265"
       cx="64"
       cy="64"
       fx="64"
       fy="64"
       r="48"
       gradientUnits="userSpaceOnUse" />
    <radialGradient
       inkscape:collect="always"
       xlink:href="#linearGradient4273"
       id="radialGradient4446"
       gradientUnits="userSpaceOnUse"
       cx="64"
       cy="64"
       fx="64"
       fy="64"
       r="48" />
    <linearGradient
       inkscape:collect="always"
       xlink:href="#linearGradient5246"
       id="linearGradient5244"
       x1="18"
       y1="64"
       x2="110"
       y2="64"
       gradientUnits="userSpaceOnUse" />
    <linearGradient
       inkscape:collect="always"
       xlink:href="#linearGradient5273"
       id="linearGradient5271"
       x1="24.000002"
       y1="988.36218"
       x2="104"
       y2="988.36218"
       gradientUnits="userSpaceOnUse" />
    <linearGradient
       inkscape:collect="always"
       xlink:href="#linearGradient5246"
       id="linearGradient5283"
       gradientUnits="userSpaceOnUse"
       x1="18"
       y1="64"
       x2="110"
       y2="64"
       gradientTransform="translate(0,924.36218)" />
    <linearGradient
       inkscape:collect="always"
       xlink:href="#linearGradient5285"
       id="linearGradient5305"
       x1="25.025642"
       y1="989.36218"
       x2="105.02564"
       y2="989.36218"
       gradientUnits="userSpaceOnUse" />
    <filter
       inkscape:collect="always"
       id="filter5470">
      <feGaussianBlur
         inkscape:collect="always"
         stdDeviation="0.59000015"
         id="feGaussianBlur5472" />
    </filter>
    <filter
       inkscape:collect="always"
       id="filter5527">
      <feGaussianBlur
         inkscape:collect="always"
         stdDeviation="3.6093938"
         id="feGaussianBlur5529" />
    </filter>
    <radialGradient
       inkscape:collect="always"
       xlink:href="#linearGradient4273"
       id="radialGradient5531"
       gradientUnits="userSpaceOnUse"
       cx="64"
       cy="64"
       fx="64"
       fy="64"
       r="48" />
    <linearGradient
       inkscape:collect="always"
       xlink:href="#linearGradient5273"
       id="linearGradient5535"
       gradientUnits="userSpaceOnUse"
       x1="24.000002"
       y1="988.36218"
       x2="104"
       y2="988.36218" />
    <linearGradient
       inkscape:collect="always"
       xlink:href="#linearGradient5285"
       id="linearGradient5537"
       gradientUnits="userSpaceOnUse"
       x1="25.025642"
       y1="989.36218"
       x2="105.02564"
       y2="989.36218" />
    <linearGradient
       inkscape:collect="always"
       xlink:href="#linearGradient5285"
       id="linearGradient5539"
       gradientUnits="userSpaceOnUse"
       x1="25.025642"
       y1="989.36218"
       x2="105.02564"
       y2="989.36218" />
    <linearGradient
       inkscape:collect="always"
       xlink:href="#linearGradient5285"
       id="linearGradient5541"
       gradientUnits="userSpaceOnUse"
       x1="25.025642"
       y1="989.36218"
       x2="105.02564"
       y2="989.36218" />
    <linearGradient
       inkscape:collect="always"
       xlink:href="#linearGradient5273"
       id="linearGradient5547"
       gradientUnits="userSpaceOnUse"
       x1="24.000002"
       y1="988.36218"
       x2="104"
       y2="988.36218" />
  </defs>
  <sodipodi:namedview
     id="base"
     pagecolor="#ffffff"
     bordercolor="#666666"
     borderopacity="1.0"
     inkscape:pageopacity="0.0"
     inkscape:pageshadow="2"
     inkscape:zoom="4.46"
     inkscape:cx="55.760338"
     inkscape:cy="59.642881"
     inkscape:document-units="px"
     inkscape:current-layer="layer1"
     showgrid="true"
     showguides="true"
     inkscape:guide-bbox="true"
     inkscape:window-width="1200"
     inkscape:window-height="840"
     inkscape:window-x="86"
     inkscape:window-y="31"
     inkscape:window-maximized="0"
     inkscape:snap-global="true">
    <inkscape:grid
       type="xygrid"
       id="grid4100"
       empspacing="8"
       visible="true"
       enabled="true"
       snapvisiblegridlinesonly="true"
       spacingx="2px"
       spacingy="2px"
       dotted="false" />
    <sodipodi:guide
       orientation="0,1"
       position="64,64"
       id="guide4102" />
    <sodipodi:guide
       orientation="1,0"
       position="64,64"
       id="guide4104" />
    <sodipodi:guide
       orientation="0,1"
       position="96,124"
       id="guide3471" />
    <sodipodi:guide
       orientation="0,1"
       position="116,4"
       id="guide3473" />
    <sodipodi:guide
       orientation="1,0"
       position="4,44"
       id="guide3475" />
    <sodipodi:guide
       orientation="1,0"
       position="124,28"
       id="guide3477" />
    <sodipodi:guide
       orientation="0,1"
       position="92,112"
       id="guide3481" />
    <sodipodi:guide
       orientation="0,1"
       position="100,16"
       id="guide3483" />
    <sodipodi:guide
       orientation="1,0"
       position="16,76"
       id="guide3485" />
    <sodipodi:guide
       orientation="1,0"
       position="112,64"
       id="guide3487" />
    <sodipodi:guide
       orientation="1,0"
       position="116,70"
       id="guide4291" />
    <sodipodi:guide
       orientation="0,1"
       position="106,80"
       id="guide4433" />
    <sodipodi:guide
       orientation="0,1"
       position="90,48"
       id="guide4435" />
    <sodipodi:guide
       orientation="1,0"
       position="10,112"
       id="guide4437" />
    <sodipodi:guide
       orientation="0,1"
       position="246,-16"
       id="guide5071" />
    <sodipodi:guide
       orientation="1,0"
       position="160,-22"
       id="guide5073" />
    <sodipodi:guide
       orientation="0,1"
       position="252,-94"
       id="guide5077" />
    <sodipodi:guide
       orientation="1,0"
       position="224,-56"
       id="guide5079" />
    <sodipodi:guide
       orientation="1,0"
       position="166,-60"
       id="guide5085" />
    <sodipodi:guide
       orientation="0,1"
       position="174,-34"
       id="guide5087" />
    <sodipodi:guide
       orientation="1,0"
       position="186,-30"
       id="guide5091" />
    <sodipodi:guide
       orientation="0,1"
       position="200,-134"
       id="guide5095" />
    <sodipodi:guide
       orientation="0,1"
       position="166,-122"
       id="guide5097" />
    <sodipodi:guide
       orientation="0,1"
       position="200,-116"
       id="guide5099" />
    <sodipodi:guide
       orientation="0,1"
       position="258,-8"
       id="guide5107" />
    <sodipodi:guide
       orientation="0,1"
       position="200,-70"
       id="guide5135" />
    <sodipodi:guide
       orientation="1,0"
       position="276,-20"
       id="guide5139" />
    <sodipodi:guide
       orientation="1,0"
       position="282,-46"
       id="guide5141" />
    <sodipodi:guide
       orientation="0,1"
       position="192,-20"
       id="guide5156" />
    <sodipodi:guide
       orientation="0,1"
       position="218,-58"
       id="guide5158" />
    <sodipodi:guide
       orientation="1,0"
       position="238,-40"
       id="guide5173" />
    <sodipodi:guide
       orientation="1,0"
       position="200,-54"
       id="guide5175" />
    <sodipodi:guide
       orientation="1,0"
       position="198,-60"
       id="guide5177" />
  </sodipodi:namedview>
  <metadata
     id="metadata4097">
    <rdf:RDF>
      <cc:Work
         rdf:about="">
        <dc:format>image/svg+xml</dc:format>
        <dc:type
           rdf:resource="http://purl.org/dc/dcmitype/StillImage" />
        <cc:license
           rdf:resource="" />
        <dc:title></dc:title>
      </cc:Work>
    </rdf:RDF>
  </metadata>
  <g
     inkscape:label="Layer 1"
     inkscape:groupmode="layer"
     id="layer1"
     transform="translate(0,-924.36218)">
    <path
       inkscape:connector-curvature="0"
       id="path4431"
       d="M 31.940768,963.83927 20.114875,953.06208 36.805076,946.62474 z"
       style="fill:#000000;fill-opacity:1;stroke:none" />
    <g
       id="g5484"
       style="fill:#000000;fill-opacity:1;filter:url(#filter5527)">
      <g
         id="g5474"
         transform="matrix(0.5690396,0.82231012,-0.82231012,0.5690396,840.32168,373.31711)"
         style="fill:#000000;fill-opacity:1">
        <path
           transform="matrix(0.89285715,0,0,0.99999996,6.8571428,924.36218)"
           d="M 120,64 C 120,94.927946 94.927946,120 64,120 33.072054,120 8,94.927946 8,64 8,33.072054 33.072054,8 64,8 c 30.927946,0 56,25.072054 56,56 z"
           sodipodi:ry="56"
           sodipodi:rx="56"
           sodipodi:cy="64"
           sodipodi:cx="64"
           id="path5476"
           style="stroke:none;fill:#000000;fill-opacity:1"
           sodipodi:type="arc" />
        <path
           transform="translate(-1.1666666e-7,924.36218)"
           d="M 112,64 C 112,90.509668 90.509668,112 64,112 37.490332,112 16,90.509668 16,64 16,37.490332 37.490332,16 64,16 c 26.509668,0 48,21.490332 48,48 z"
           sodipodi:ry="48"
           sodipodi:rx="48"
           sodipodi:cy="64"
           sodipodi:cx="64"
           id="path5478"
           style="fill:#000000;fill-opacity:1;fill-rule:evenodd;stroke:none"
           sodipodi:type="arc" />
      </g>
      <path
         style="fill:#000000;fill-opacity:1;stroke:none"
         d="m 96.05922,1012.8851 11.82587,10.7772 -16.69017,6.4372 z"
         id="path5480"
         inkscape:connector-curvature="0" />
      <path
         inkscape:connector-curvature="0"
         id="path5482"
         d="M 31.940768,963.83927 20.114875,953.06208 36.805076,946.62474 z"
         style="fill:#000000;fill-opacity:1;stroke:none" />
    </g>
    <path
       style="fill:#000000;fill-opacity:1;stroke:none"
       d="m 96.05922,1012.8851 11.82587,10.7772 -16.69017,6.4372 z"
       id="path4287"
       inkscape:connector-curvature="0" />
    <path
       sodipodi:type="arc"
       style="stroke:none"
       id="path4106"
       sodipodi:cx="64"
       sodipodi:cy="64"
       sodipodi:rx="56"
       sodipodi:ry="56"
       d="M 120,64 C 120,94.927946 94.927946,120 64,120 33.072054,120 8,94.927946 8,64 8,33.072054 33.072054,8 64,8 c 30.927946,0 56,25.072054 56,56 z"
       transform="matrix(0.50807108,0.73420547,-0.82231009,0.56903958,84.111291,904.95449)" />
    <path
       sodipodi:type="arc"
       style="fill:url(#radialGradient5531);fill-opacity:1;fill-rule:evenodd;stroke:none"
       id="path3489"
       sodipodi:cx="64"
       sodipodi:cy="64"
       sodipodi:rx="48"
       sodipodi:ry="48"
       d="M 112,64 C 112,90.509668 90.509668,112 64,112 37.490332,112 16,90.509668 16,64 16,37.490332 37.490332,16 64,16 c 26.509668,0 48,21.490332 48,48 z"
       transform="matrix(0.5690396,0.82231012,-0.82231012,0.5690396,80.209305,899.3158)" />
    <g
       id="g5318"
       style="fill:#000000;fill-opacity:1;filter:url(#filter5470)">
      <path
         style="fill:#000000;fill-opacity:1;stroke:none"
         d="m 24.000001,981.04638 c 0.974358,2.31579 0.923076,1.57897 2.974358,16.31579 2.051282,6.31583 6,10.00003 12,10.00003 6,0 10,0 16,-4 12.082998,-7.45416 24.195918,-21.84737 34,-22.00003 10,0 14.000001,8 15.025641,14.42105 -1.02564,-2.42105 -0.97436,-1.68422 -3.02564,-16.42105 -2.051287,-6.31579 -8.000001,-10 -12.000001,-10 -4,0 -10,0 -16,4 -8.819633,5.59312 -24,22 -34,22 -10,0 -14,-8 -14.974358,-14.31579 z"
         id="path5320"
         inkscape:connector-curvature="0"
         sodipodi:nodetypes="cczcccczczc" />
      <g
         id="g5322"
         style="fill:#000000;fill-opacity:1"
         transform="translate(-1.025641,-1.00001)">
        <path
           sodipodi:nodetypes="zczccz"
           inkscape:connector-curvature="0"
           id="path5324"
           d="m 44,980.36218 c -18.461538,0 -16,18 -16,18 0,0 -2.974358,-14.21052 -2.974358,-16.31579 0,-2.10526 1.692307,-11.68421 12.974358,-11.68421 11.282051,0 21.897436,9.57895 28.051282,20.10526 C 64,990.46744 62.461538,980.36218 44,980.36218 z"
           style="fill:#000000;fill-opacity:1;stroke:none" />
        <path
           style="fill:#000000;fill-opacity:1;stroke:none"
           d="m 86,998.36218 c 18.46154,0 16,-18 16,-18 0,0 3.02564,14.31579 3.02564,16.42105 0,2.10526 -1.74359,11.57897 -13.02564,11.57897 -11.282051,0 -21.846154,-9.47371 -28,-20.00002 2.051282,0 3.538462,10 22,10 z"
           id="path5326"
           inkscape:connector-curvature="0"
           sodipodi:nodetypes="zczccz" />
      </g>
    </g>
    <path
       style="fill:url(#linearGradient5547);fill-opacity:1;stroke:none"
       d="m 24.000001,981.04638 c 0.974358,2.31579 0.923076,1.57897 2.974358,16.31579 2.051282,6.31583 6,10.00003 12,10.00003 6,0 10,0 16,-4 12.082998,-7.45416 24.195918,-21.84737 34,-22.00003 10,0 14.000001,8 15.025641,14.42105 -1.02564,-2.42105 -0.97436,-1.68422 -3.02564,-16.42105 -2.051287,-6.31579 -8.000001,-10 -12.000001,-10 -4,0 -10,0 -16,4 -8.819633,5.59312 -24,22 -34,22 -10,0 -14,-8 -14.974358,-14.31579 z"
       id="path5089"
       inkscape:connector-curvature="0"
       sodipodi:nodetypes="cczcccczczc" />
    <g
       id="g5214"
       style="fill:url(#linearGradient5541);fill-opacity:1"
       transform="translate(-1.025641,-1.00001)">
      <path
         sodipodi:nodetypes="zczccz"
         inkscape:connector-curvature="0"
         id="path5065"
         d="m 44,980.36218 c -18.461538,0 -16,18 -16,18 0,0 -2.974358,-14.21052 -2.974358,-16.31579 0,-2.10526 1.692307,-11.68421 12.974358,-11.68421 11.282051,0 21.897436,9.57895 28.051282,20.10526 C 64,990.46744 62.461538,980.36218 44,980.36218 z"
         style="fill:url(#linearGradient5537);fill-opacity:1;stroke:none" />
      <path
         style="fill:url(#linearGradient5539);fill-opacity:1;stroke:none"
         d="m 86,998.36218 c 18.46154,0 16,-18 16,-18 0,0 3.02564,14.31579 3.02564,16.42105 0,2.10526 -1.74359,11.57897 -13.02564,11.57897 -11.282051,0 -21.846154,-9.47371 -28,-20.00002 2.051282,0 3.538462,10 22,10 z"
         id="path5171"
         inkscape:connector-curvature="0"
         sodipodi:nodetypes="zczccz" />
    </g>
    <path
       style="fill:url(#linearGradient5283);fill-opacity:1;stroke:none"
       d="m 64,942.36218 c -19.003989,0 -35.29877,11.52758 -42.3125,27.96875 9.757558,10.8844 25.958699,18.03125 44.3125,18.03125 16.667324,0 31.563206,-5.86318 41.46875,-15.09375 C 101.22125,955.27859 84.117043,942.36218 64,942.36218 z"
       id="path5224"
       inkscape:connector-curvature="0" />
  </g>
</svg>
